# xmcd CD database file
#
# Track frame offsets:
#	150
#	16587
#	34548
#	49139
#	70624
#	89640
#	106176
#	121749
#	137099
#	154244
#	173572
#	193979
#	210187
#	237970
#
# Disc length: 3269 seconds
#
# Revision: 1
# Processed by: cddbd v1.5.2PL0 Copyright (c) Steve Scherf et al.
# Submitted via: CDex 1.70beta2
#
DISCID=ad0cc30e
DTITLE=Whiskey Falls - Whiskey Falls
DYEAR=2007
DGENRE=Country
TTITLE0=Falling Into You
TTITLE1=Last Train Running
TTITLE2=The Night Ain't Over Yet
TTITLE3=Highway 59
TTITLE4=The Champ
TTITLE5=Days of Birmingham
TTITLE6=Better Days Will Come At Last
TTITLE7=Working Man
TTITLE8=So Much Better
TTITLE9=Keep The Light On
TTITLE10=I Can't Stop Loving You
TTITLE11=Let The Wiskey Fall
TTITLE12=Load Up The Bases (The Baseball Song)
TTITLE13=data
EXTD=YEAR: 2007
EXTT0=
EXTT1=
EXTT2=
EXTT3=
EXTT4=
EXTT5=
EXTT6=
EXTT7=
EXTT8=
EXTT9=
EXTT10=
EXTT11=
EXTT12=
EXTT13=
PLAYORDER=
